<svg fill="none" height="100%" width="100%" viewBox="0 0 500 500" xmlns:xlink="http://www.w3.org/1999/xlink" xmlns="http://www.w3.org/2000/svg"><defs><clipPath id="i0"><rect height="500" width="500" y="0" x="0" /></clipPath><clipPath id="i1"><path d="M83.52,-19.669C83.52,-19.669,46.52,-19.669,46.52,-19.669C46.52,-19.669,18.02,16.831,18.02,16.831C18.02,16.831,83.52,16.831,83.52,16.831C83.52,16.831,83.52,-19.669,83.52,-19.669Z"></path></clipPath><clipPath id="i2"><path d="M-51.02,-24.669C-51.02,-24.669,-81.52,-24.669,-81.52,-24.669C-81.52,-24.669,-81.52,17.331,-81.52,17.331C-81.52,17.331,-19.02,17.331,-19.02,17.331C-19.02,17.331,-51.02,-24.669,-51.02,-24.669Z"></path></clipPath><clipPath id="i3"><path d="M245,231.5C245,231.5,152,302,152,302C152,302,192.5,334.5,192.5,334.5C192.5,334.5,193.5,398.5,193.5,398.5C193.5,398.5,322.5,336,322.5,336C322.5,336,245,231.5,245,231.5Z"></path></clipPath><clipPath id="i4"><path d="M252,233.5C252,233.5,193.5,327,193.5,327C193.5,327,306,392.5,306,392.5C306,392.5,306,327.5,306,327.5C306,327.5,350,294.5,350,294.5C350,294.5,252,233.5,252,233.5Z"></path></clipPath><clipPath id="i5"><path d="M249.5,243C249.5,243,249.5,243,249.5,243C249.5,243,249.5,423,249.5,423C249.5,423,249.5,423,249.5,423C249.5,423,249.5,243,249.5,243Z"></path></clipPath><g id="i6"><g transform="matrix(1,0,0,1,335.98,372.169)"  id="i7"><g clip-path="url(#i1)" id="i8"><g id="i7"><path fill="#8394b0" d="M26.684,2.224C26.684,2.224,-26.684,14.083,-26.684,14.083C-26.684,14.083,-4.151,-14.083,-4.151,-14.083C6.733,-9.881,17.084,-4.407,26.684,2.224Z" /></g></g></g><g transform="matrix(1,0,0,1,164.02,372.169)"  id="i9"><g clip-path="url(#i2)" id="i10"><g id="i9"><path fill="#8394b0" d="M4.151,-14.083C4.151,-14.083,26.684,14.083,26.684,14.083C26.684,14.083,-26.684,2.224,-26.684,2.224C-17.084,-4.407,-6.733,-9.881,4.151,-14.083Z" /></g></g></g><g transform="matrix(1,0,0,1,0,0)"  id="i11"><g clip-path="url(#i3)" id="i12"><g id="i13" transform="matrix(1,0,0,1,128.442,380.708)"><path fill="#c0cee6" d="M8.895,-6.315C8.895,-6.315,62.262,5.544,62.262,5.544C32.614,17.403,-32.613,52.982,-32.613,52.982C-32.613,52.982,-32.613,5.544,-32.613,5.544C-32.613,5.544,-62.262,-18.174,-62.262,-18.174C-57.044,-33.71,-24.667,-49.306,-16.603,-52.982C-16.603,-52.982,-16.544,-52.982,-16.544,-52.982C-16.544,-52.982,8.895,-6.315,8.895,-6.315Z" /></g><g id="i14" transform="matrix(1,0,0,1,143.278,380.708)"><path fill="#a8b6d2" d="M-31.38,-52.982C-31.38,-52.982,-31.439,-52.982,-31.439,-52.982C-33.176,-52.193,-36.076,-50.817,-39.551,-49.044C-39.551,-49.044,-23.903,-17.742,-23.903,-17.742C-17.087,-4.121,-21.701,12.45,-34.576,20.588C-38.685,23.179,-43.055,25.924,-47.437,28.723C-47.437,28.723,-47.437,52.982,-47.437,52.982C-47.437,52.982,17.789,17.403,47.437,5.544C47.437,5.544,-5.93,-6.315,-5.93,-6.315C-5.93,-6.315,-31.38,-52.982,-31.38,-52.982Z" /></g></g></g><g transform="matrix(1,0,0,1,0,0)"  id="i15"><g clip-path="url(#i4)" id="i16"><g id="i13" transform="matrix(1,0,0,1,371.558,380.708)"><path fill="#c0cee6" d="M62.262,-18.174C62.262,-18.174,32.613,5.544,32.613,5.544C32.613,5.544,32.613,52.982,32.613,52.982C32.613,52.982,-32.614,17.403,-62.262,5.544C-62.262,5.544,-8.895,-6.315,-8.895,-6.315C-8.895,-6.315,16.544,-52.982,16.544,-52.982C16.544,-52.982,16.603,-52.982,16.603,-52.982C24.667,-49.306,57.044,-33.71,62.262,-18.174Z" /></g><g id="i14" transform="matrix(1,0,0,1,356.734,380.708)"><path fill="#a8b6d2" d="M23.891,-17.742C23.891,-17.742,39.539,-49.044,39.539,-49.044C36.064,-50.823,33.164,-52.193,31.427,-52.982C31.427,-52.982,31.368,-52.982,31.368,-52.982C31.368,-52.982,5.93,-6.315,5.93,-6.315C5.93,-6.315,-47.437,5.544,-47.437,5.544C-17.789,17.403,47.437,52.982,47.437,52.982C47.437,52.982,47.437,28.723,47.437,28.723C43.055,25.942,38.685,23.179,34.576,20.588C21.696,12.454,17.077,-4.118,23.891,-17.742Z" /></g></g></g><g transform="matrix(1,0,0,1,0,0)"  id="i17"><g clip-path="url(#i5)" id="i18"><g id="i13" transform="matrix(1,0,0,1,250,321.009)"><path fill="#ecf3f9" d="M138.102,6.718C138.102,6.718,112.664,53.385,112.664,53.385C103.064,46.754,92.713,41.28,81.829,37.078C76.611,34.884,71.275,32.986,65.938,31.326C61.965,30.021,57.993,28.835,54.079,27.768C46.589,25.725,38.986,24.121,31.309,22.965C10.559,19.763,-10.559,19.763,-31.309,22.965C-38.986,24.121,-46.589,25.725,-54.079,27.768C-57.993,28.835,-61.965,30.021,-65.938,31.326C-71.275,32.986,-76.611,34.884,-81.829,37.078C-92.713,41.28,-103.064,46.754,-112.664,53.385C-112.664,53.385,-138.102,6.718,-138.102,6.718C-138.102,6.718,-138.161,6.718,-138.161,6.718C-138.161,6.718,-148.242,-11.842,-148.242,-11.842C-148.242,-11.842,-140,-26.31,-107.624,-38.11C-98.537,-41.409,-89.222,-44.046,-79.754,-45.997C-53.502,-51.249,-26.769,-53.713,0,-53.35C26.769,-53.713,53.502,-51.249,79.754,-45.997C89.222,-44.046,98.537,-41.409,107.624,-38.11C140,-26.31,148.242,-11.842,148.242,-11.842C148.242,-11.842,138.161,6.718,138.161,6.718C138.161,6.718,138.102,6.718,138.102,6.718Z" /></g><g id="i14" transform="matrix(1,0,0,1,238.241,333.108)"><path fill="#d5dfe9" d="M11.759,-17.241C-16.387,-17.622,-44.349,-12.643,-70.634,-2.571C-81.679,1.777,-94.235,-2.755,-99.956,-13.155C-99.956,-13.155,-115.581,-41.285,-115.581,-41.285C-123.865,-37.305,-131.043,-31.349,-136.483,-23.941C-136.483,-23.941,-126.403,-5.381,-126.403,-5.381C-126.403,-5.381,-126.344,-5.381,-126.344,-5.381C-126.344,-5.381,-100.905,41.285,-100.905,41.285C-91.305,34.654,-80.955,29.181,-70.071,24.979C-64.853,22.785,-59.516,20.887,-54.179,19.227C-50.206,17.922,-46.234,16.736,-42.32,15.669C-34.83,13.626,-27.227,12.022,-19.55,10.866C1.2,7.664,22.317,7.664,43.067,10.866C50.744,12.022,58.347,13.626,65.837,15.669C69.751,16.736,73.724,17.922,77.697,19.227C83.034,20.887,88.37,22.785,93.588,24.979C104.472,29.181,114.822,34.654,124.422,41.285C124.422,41.285,136.483,19.156,136.483,19.156C136.483,19.156,136.282,18.338,136.282,18.338C124.423,6.479,59.196,-17.241,11.759,-17.241Z" /></g></g></g></g></defs><g id="i19"><g transform="translate(250,232.081)"><g ><g transform="translate(-250,-232.081)"><g id="i13" transform="matrix(1,0,0,1,250,232.081)"><path fill="#9a5ca6" d="M-107.624,50.817C-140.119,-26.921,-142.312,-112.664,-142.312,-112.664C-100.804,-112.664,-94.875,-154.171,-94.875,-154.171C-32.613,-169.983,32.613,-169.983,94.875,-154.171C94.875,-154.171,100.804,-112.664,142.312,-112.664C142.312,-112.664,140.119,-26.921,107.624,50.817C99.78,73.253,79.942,118.892,33.284,149.24C21.778,156.724,10.436,162.111,0,166.031C-3.659,164.722,-7.313,163.254,-10.956,161.615C-63.846,137.823,-92.478,87.836,-107.624,50.817Z" /></g><g id="i14" transform="matrix(1,0,0,1,236.584,237.88)"><path fill="#76509a" d="M-66.635,35.708C-66.635,35.707,-70.784,25.783,-74.082,15.192C-85.147,-20.343,-91.612,-57.15,-93.318,-94.329C-86.604,-94.186,-79.998,-96.044,-74.343,-99.666C-77.865,-125.033,-79.68,-146.416,-80.599,-160.232C-80.599,-160.232,-81.459,-159.971,-81.459,-159.971C-81.459,-159.971,-87.388,-118.463,-128.896,-118.463C-126.554,-69.822,-117.525,-21.736,-102.064,24.442C-98.455,35.221,-94.208,45.023,-94.208,45.024C-85.115,66.519,-75.924,81.487,-73.132,85.947C-67.938,94.243,-62.176,103.446,-52.522,114.455C-38.376,130.587,-25.387,139.747,-22.577,141.698C-11.491,149.394,0.602,155.639,13.416,160.232C39.043,151.046,61.79,135.255,79.354,114.455C86.475,106.454,94.328,96.446,101.856,84.295C110.769,69.909,116.847,56.357,121.039,45.018C122.419,41.705,123.791,38.283,125.137,34.749C126.444,31.316,127.695,27.875,128.896,24.436C126.435,23.381,123.862,22.325,121.039,21.299C114.451,18.885,107.732,16.846,100.914,15.192C99.316,20.139,96.87,27.275,93.466,35.708C87.757,49.851,82.44,63.026,72.839,76.725C67.442,84.426,58.582,95.302,44.725,106.094C41.221,108.658,37.386,111.201,33.314,113.818C26.901,117.94,19.074,122.58,13.416,124.654C2.099,120.507,-8.443,114.494,-17.774,106.865C-30.674,96.348,-39.272,85.905,-44.745,78.239C-55.447,63.249,-61.219,49.042,-66.635,35.708Z" /></g></g></g></g></g><g id="i20"><g transform="translate(250,232.852)"><g ><g transform="translate(0,0)"><g id="i20"><path fill="#593c74" d="M88.708,44.259C104.706,1.793,113.795,-42.963,115.629,-88.305C115.75,-93.216,111.867,-97.295,106.956,-97.416C106.882,-97.418,106.808,-97.419,106.734,-97.419C84.29,-97.419,80.342,-119.827,79.968,-122.323C79.503,-125.786,77.053,-128.655,73.706,-129.658C25.418,-142.575,-25.418,-142.575,-73.706,-129.658C-77.022,-128.645,-79.458,-125.812,-79.962,-122.382C-80.342,-119.826,-84.29,-97.419,-106.734,-97.419C-111.646,-97.42,-115.63,-93.439,-115.631,-88.527C-115.631,-88.453,-115.631,-88.379,-115.629,-88.305C-113.795,-42.963,-104.706,1.793,-88.708,44.259C-74.728,76.982,-64.685,91.696,-57.783,98.912C-57.783,98.912,-57.334,99.382,-43.791,113.441C-32.064,124.564,-18.204,133.193,-3.048,138.808C-1.08,139.526,1.08,139.526,3.048,138.808C18.204,133.193,32.064,124.564,43.791,113.441C49.578,107.113,55.548,99.936,61.441,91.847C73.793,74.892,82.507,58.455,88.708,44.259Z" /></g></g></g></g></g><g id="i21"><g transform="translate(250,232.081)"><g ><g transform="translate(-250,-232.081)"><g id="i22" transform="matrix(1,0,0,1,250,184.644)"><path fill="#ecf3f9" d="M53.367,-11.207C53.367,-11.207,26.684,13.105,26.684,13.105C26.684,13.105,32.969,47.437,32.969,47.437C32.969,47.437,0,31.249,0,31.249C0,31.249,-32.969,47.437,-32.969,47.437C-32.969,47.437,-26.684,13.105,-26.684,13.105C-26.684,13.105,-53.367,-11.207,-53.367,-11.207C-53.367,-11.207,-16.484,-16.188,-16.484,-16.188C-16.484,-16.188,0,-47.437,0,-47.437C0,-47.437,16.484,-16.188,16.484,-16.188C16.484,-16.188,53.367,-11.207,53.367,-11.207Z" /></g><g id="i13" transform="matrix(1,0,0,1,250,188.32)"><path fill="#fdc92f" d="M106.734,-44.769C104.778,-0.284,95.772,43.609,80.051,85.269C80.051,85.269,79.754,86.692,79.754,86.692C53.502,81.44,26.769,78.976,0,79.339C-26.769,78.976,-53.502,81.44,-79.754,86.692C-79.754,86.692,-80.051,85.269,-80.051,85.269C-95.772,43.609,-104.778,-0.284,-106.734,-44.769C-75.603,-44.769,-71.156,-77.382,-71.156,-77.382C-24.531,-89.795,24.531,-89.795,71.156,-77.382C71.156,-77.382,75.603,-44.769,106.734,-44.769Z" /></g><g id="i14" transform="matrix(1,0,0,1,240.382,250.386)"><path fill="#fca92a" d="M89.669,23.203C92.432,16.414,94.892,9.564,97.116,2.686C94.631,2.075,92.04,1.476,89.372,0.907C63.12,-4.345,36.387,-6.809,9.618,-6.446C-3,-6.446,-14.581,-6.019,-25.207,-5.26C-42.447,-3.903,-58.182,-15.091,-62.564,-31.819C-69.245,-58.285,-74.446,-85.103,-78.141,-112.148C-83.796,-108.526,-90.402,-106.668,-97.116,-106.811C-95.41,-69.632,-88.945,-32.825,-77.88,2.71C-75.656,9.565,-73.196,16.438,-70.433,23.227C-66.583,33.585,-60.645,46.598,-51.382,60.372C-41.222,75.48,-30.346,86.618,-21.572,94.359C-17.611,97.598,-12.674,101.164,-6.722,104.559C-1.505,107.534,3.96,110.074,9.618,112.148C20.935,108.001,31.477,101.988,40.808,94.359C48.541,86.782,57.05,77.35,65.382,65.86C76.622,50.36,84.342,35.525,89.669,23.203Z" /></g></g></g></g></g><g id="i23"><g transform="translate(250,232.081)"><g ><g transform="translate(-250,-232.081)"><g id="i22" transform="matrix(1,0,0,1,250,184.644)"><path fill="#ecf3f9" d="M53.367,-11.207C53.367,-11.207,26.684,13.105,26.684,13.105C26.684,13.105,32.969,47.437,32.969,47.437C32.969,47.437,0,31.249,0,31.249C0,31.249,-32.969,47.437,-32.969,47.437C-32.969,47.437,-26.684,13.105,-26.684,13.105C-26.684,13.105,-53.367,-11.207,-53.367,-11.207C-53.367,-11.207,-16.484,-16.188,-16.484,-16.188C-16.484,-16.188,0,-47.437,0,-47.437C0,-47.437,16.484,-16.188,16.484,-16.188C16.484,-16.188,53.367,-11.207,53.367,-11.207Z" /></g></g></g></g></g><g  id="i24"><g transform="translate(250,250)"><g transform="scale(0.429,0.429)"><g transform="translate(-250,-250)"><g clip-path="url(#i0)"><g transform="matrix(1,0,0,1,335.98,372.169)" ><g clip-path="url(#i1)"><g><path fill="#8394b0" d="M26.684,2.224C26.684,2.224,-26.684,14.083,-26.684,14.083C-26.684,14.083,-4.151,-14.083,-4.151,-14.083C6.733,-9.881,17.084,-4.407,26.684,2.224Z" /></g></g></g><g transform="matrix(1,0,0,1,164.02,372.169)" ><g clip-path="url(#i2)"><g><path fill="#8394b0" d="M4.151,-14.083C4.151,-14.083,26.684,14.083,26.684,14.083C26.684,14.083,-26.684,2.224,-26.684,2.224C-17.084,-4.407,-6.733,-9.881,4.151,-14.083Z" /></g></g></g><g transform="matrix(1,0,0,1,0,0)" ><g clip-path="url(#i3)"><g transform="matrix(1,0,0,1,128.442,380.708)"><path fill="#c0cee6" d="M8.895,-6.315C8.895,-6.315,62.262,5.544,62.262,5.544C32.614,17.403,-32.613,52.982,-32.613,52.982C-32.613,52.982,-32.613,5.544,-32.613,5.544C-32.613,5.544,-62.262,-18.174,-62.262,-18.174C-57.044,-33.71,-24.667,-49.306,-16.603,-52.982C-16.603,-52.982,-16.544,-52.982,-16.544,-52.982C-16.544,-52.982,8.895,-6.315,8.895,-6.315Z" /></g><g transform="matrix(1,0,0,1,143.278,380.708)"><path fill="#a8b6d2" d="M-31.38,-52.982C-31.38,-52.982,-31.439,-52.982,-31.439,-52.982C-33.176,-52.193,-36.076,-50.817,-39.551,-49.044C-39.551,-49.044,-23.903,-17.742,-23.903,-17.742C-17.087,-4.121,-21.701,12.45,-34.576,20.588C-38.685,23.179,-43.055,25.924,-47.437,28.723C-47.437,28.723,-47.437,52.982,-47.437,52.982C-47.437,52.982,17.789,17.403,47.437,5.544C47.437,5.544,-5.93,-6.315,-5.93,-6.315C-5.93,-6.315,-31.38,-52.982,-31.38,-52.982Z" /></g></g></g><g transform="matrix(1,0,0,1,0,0)" ><g clip-path="url(#i4)"><g transform="matrix(1,0,0,1,371.558,380.708)"><path fill="#c0cee6" d="M62.262,-18.174C62.262,-18.174,32.613,5.544,32.613,5.544C32.613,5.544,32.613,52.982,32.613,52.982C32.613,52.982,-32.614,17.403,-62.262,5.544C-62.262,5.544,-8.895,-6.315,-8.895,-6.315C-8.895,-6.315,16.544,-52.982,16.544,-52.982C16.544,-52.982,16.603,-52.982,16.603,-52.982C24.667,-49.306,57.044,-33.71,62.262,-18.174Z" /></g><g transform="matrix(1,0,0,1,356.734,380.708)"><path fill="#a8b6d2" d="M23.891,-17.742C23.891,-17.742,39.539,-49.044,39.539,-49.044C36.064,-50.823,33.164,-52.193,31.427,-52.982C31.427,-52.982,31.368,-52.982,31.368,-52.982C31.368,-52.982,5.93,-6.315,5.93,-6.315C5.93,-6.315,-47.437,5.544,-47.437,5.544C-17.789,17.403,47.437,52.982,47.437,52.982C47.437,52.982,47.437,28.723,47.437,28.723C43.055,25.942,38.685,23.179,34.576,20.588C21.696,12.454,17.077,-4.118,23.891,-17.742Z" /></g></g></g><g transform="matrix(1,0,0,1,0,0)" ><g clip-path="url(#i5)"><g transform="matrix(1,0,0,1,250,321.009)"><path fill="#ecf3f9" d="M138.102,6.718C138.102,6.718,112.664,53.385,112.664,53.385C103.064,46.754,92.713,41.28,81.829,37.078C76.611,34.884,71.275,32.986,65.938,31.326C61.965,30.021,57.993,28.835,54.079,27.768C46.589,25.725,38.986,24.121,31.309,22.965C10.559,19.763,-10.559,19.763,-31.309,22.965C-38.986,24.121,-46.589,25.725,-54.079,27.768C-57.993,28.835,-61.965,30.021,-65.938,31.326C-71.275,32.986,-76.611,34.884,-81.829,37.078C-92.713,41.28,-103.064,46.754,-112.664,53.385C-112.664,53.385,-138.102,6.718,-138.102,6.718C-138.102,6.718,-138.161,6.718,-138.161,6.718C-138.161,6.718,-148.242,-11.842,-148.242,-11.842C-148.242,-11.842,-140,-26.31,-107.624,-38.11C-98.537,-41.409,-89.222,-44.046,-79.754,-45.997C-53.502,-51.249,-26.769,-53.713,0,-53.35C26.769,-53.713,53.502,-51.249,79.754,-45.997C89.222,-44.046,98.537,-41.409,107.624,-38.11C140,-26.31,148.242,-11.842,148.242,-11.842C148.242,-11.842,138.161,6.718,138.161,6.718C138.161,6.718,138.102,6.718,138.102,6.718Z" /></g><g transform="matrix(1,0,0,1,238.241,333.108)"><path fill="#d5dfe9" d="M11.759,-17.241C-16.387,-17.622,-44.349,-12.643,-70.634,-2.571C-81.679,1.777,-94.235,-2.755,-99.956,-13.155C-99.956,-13.155,-115.581,-41.285,-115.581,-41.285C-123.865,-37.305,-131.043,-31.349,-136.483,-23.941C-136.483,-23.941,-126.403,-5.381,-126.403,-5.381C-126.403,-5.381,-126.344,-5.381,-126.344,-5.381C-126.344,-5.381,-100.905,41.285,-100.905,41.285C-91.305,34.654,-80.955,29.181,-70.071,24.979C-64.853,22.785,-59.516,20.887,-54.179,19.227C-50.206,17.922,-46.234,16.736,-42.32,15.669C-34.83,13.626,-27.227,12.022,-19.55,10.866C1.2,7.664,22.317,7.664,43.067,10.866C50.744,12.022,58.347,13.626,65.837,15.669C69.751,16.736,73.724,17.922,77.697,19.227C83.034,20.887,88.37,22.785,93.588,24.979C104.472,29.181,114.822,34.654,124.422,41.285C124.422,41.285,136.483,19.156,136.483,19.156C136.483,19.156,136.282,18.338,136.282,18.338C124.423,6.479,59.196,-17.241,11.759,-17.241Z" /></g></g></g></g></g></g></g></g></svg>