<svg width="24" height="24" viewBox="0 0 24 24" fill="none" xmlns="http://www.w3.org/2000/svg">
<path fill-rule="evenodd" clip-rule="evenodd" d="M11.5716 2.50024C9.60386 2.50024 7.78938 2.54303 6.01244 2.62541C3.04783 2.76286 0.635867 5.01772 0.30211 7.88416C-0.100703 11.3437 -0.100703 14.3002 0.30211 17.7597C0.635867 20.6261 3.04783 22.881 6.01244 23.0185C7.78938 23.1007 9.60386 23.1436 11.5716 23.1436C13.5393 23.1436 15.3538 23.1007 17.1306 23.0185C20.0954 22.881 22.5073 20.6261 22.8411 17.7597C23.2438 14.3002 23.2438 11.3437 22.8411 7.88416C22.5073 5.01772 20.0954 2.76286 17.1308 2.62541C15.3538 2.54303 13.5393 2.50024 11.5716 2.50024Z" fill="#EBE6FF"/>
<path fill-rule="evenodd" clip-rule="evenodd" d="M8.14645 1.28575C8.14645 0.575649 7.57081 0 6.8607 0C6.15061 0 5.57495 0.575649 5.57495 1.28575V5.143C5.57495 5.85309 6.15061 6.42875 6.8607 6.42875C7.57081 6.42875 8.14645 5.85309 8.14645 5.143V1.28575ZM17.5685 1.28575C17.5685 0.575649 16.993 0 16.2828 0C15.5727 0 14.9971 0.575649 14.9971 1.28575V5.143C14.9971 5.85309 15.5727 6.42875 16.2828 6.42875C16.993 6.42875 17.5685 5.85309 17.5685 5.143V1.28575Z" fill="#9D89FA"/>
<path fill-rule="evenodd" clip-rule="evenodd" d="M6.8631 11.1994V11.2014V11.2033H6.86507H6.86704V11.2014V11.1994H6.86507H6.8631ZM5.7983 10.1346C6.09901 9.83387 6.49335 9.72705 6.86507 9.72705C7.23679 9.72705 7.63114 9.83387 7.93187 10.1346C8.23258 10.4353 8.3394 10.8297 8.3394 11.2014C8.3394 11.5731 8.23258 11.9674 7.93187 12.2682C7.63114 12.5689 7.23679 12.6757 6.86507 12.6757C6.49335 12.6757 6.09901 12.5689 5.7983 12.2682C5.49757 11.9674 5.39075 11.5731 5.39075 11.2014C5.39075 10.8297 5.49757 10.4353 5.7983 10.1346ZM6.8631 16.3424V16.3444V16.3463H6.86507H6.86704V16.3444V16.3424H6.86507H6.8631ZM5.7983 15.2776C6.09901 14.9769 6.49335 14.87 6.86507 14.87C7.23679 14.87 7.63114 14.9769 7.93187 15.2776C8.23258 15.5783 8.3394 15.9727 8.3394 16.3444C8.3394 16.7161 8.23258 17.1104 7.93187 17.4111C7.63114 17.7118 7.23679 17.8188 6.86507 17.8188C6.49335 17.8188 6.09901 17.7118 5.7983 17.4111C5.49757 17.1104 5.39075 16.7161 5.39075 16.3444C5.39075 15.9727 5.49757 15.5783 5.7983 15.2776ZM11.5692 16.3444V16.3424H11.5711H11.5731V16.3444V16.3463H11.5711H11.5692V16.3444ZM11.5711 14.87C11.1994 14.87 10.8051 14.9769 10.5043 15.2776C10.2036 15.5783 10.0968 15.9727 10.0968 16.3444C10.0968 16.7161 10.2036 17.1104 10.5043 17.4111C10.8051 17.7118 11.1994 17.8188 11.5711 17.8188C11.9428 17.8188 12.3372 17.7118 12.6379 17.4111C12.9386 17.1104 13.0454 16.7161 13.0454 16.3444C13.0454 15.9727 12.9386 15.5783 12.6379 15.2776C12.3372 14.9769 11.9428 14.87 11.5711 14.87ZM11.5758 11.1994V11.2014V11.2033H11.5778H11.5798V11.2014V11.1994H11.5778H11.5758ZM10.511 10.1346C10.8117 9.83387 11.2061 9.72705 11.5778 9.72705C11.9495 9.72705 12.3439 9.83387 12.6446 10.1346C12.9453 10.4353 13.0521 10.8297 13.0521 11.2014C13.0521 11.5731 12.9453 11.9674 12.6446 12.2682C12.3439 12.5689 11.9495 12.6757 11.5778 12.6757C11.2061 12.6757 10.8117 12.5689 10.511 12.2682C10.2103 11.9674 10.1035 11.5731 10.1035 11.2014C10.1035 10.8297 10.2103 10.4353 10.511 10.1346ZM16.2785 11.2014V11.1994H16.2805H16.2825V11.2014V11.2033H16.2805H16.2785V11.2014ZM16.2805 9.72705C15.9088 9.72705 15.5144 9.83387 15.2137 10.1346C14.913 10.4353 14.8062 10.8297 14.8062 11.2014C14.8062 11.5731 14.913 11.9674 15.2137 12.2682C15.5144 12.5689 15.9088 12.6757 16.2805 12.6757C16.6522 12.6757 17.0466 12.5689 17.3473 12.2682C17.648 11.9674 17.7548 11.5731 17.7548 11.2014C17.7548 10.8297 17.648 10.4353 17.3473 10.1346C17.0466 9.83387 16.6522 9.72705 16.2805 9.72705Z" fill="#9D89FA"/>
</svg>
