<svg width="24" height="24" viewBox="0 0 24 24" fill="none" xmlns="http://www.w3.org/2000/svg">
<g clip-path="url(#clip0_19428_539)">
<path fill-rule="evenodd" clip-rule="evenodd" d="M13.5633 2.21454C12.6364 1.54763 11.3646 1.54763 10.4377 2.21453L9.27848 3.04858C5.8756 5.49696 2.95793 8.50174 0.663732 11.9235L0.291842 12.4782C-0.508909 13.6725 0.454127 15.0902 1.74497 15.0902H2.97877C2.91073 16.6142 2.99962 18.1426 3.24527 19.6536C3.49698 21.202 4.88396 22.2863 6.4457 22.2863H17.5552C19.117 22.2863 20.504 21.202 20.7557 19.6536C21.0014 18.1426 21.0903 16.6142 21.0223 15.0902H22.2557C23.5466 15.0902 24.5096 13.6725 23.709 12.4782L23.3371 11.9236C21.043 8.50179 18.1252 5.49694 14.7223 3.0485L13.5633 2.21454Z" fill="#9D89FA"/>
<path fill-rule="evenodd" clip-rule="evenodd" d="M14.5717 22.2863V16.7683C14.5717 15.3481 13.4204 14.1968 12.0002 14.1968C10.58 14.1968 9.42871 15.3481 9.42871 16.7683V22.2863H14.5717Z" fill="#C0B1FF"/>
</g>
<defs>
<clipPath id="clip0_19428_539">
<rect width="24.0007" height="24.0007" fill="white"/>
</clipPath>
</defs>
</svg>
