<svg width="24" height="24" viewBox="0 0 24 24" fill="none" xmlns="http://www.w3.org/2000/svg">
<g clip-path="url(#clip0_19428_545)">
<path d="M11.5702 23.1374C18.9731 23.1374 23.1371 18.9732 23.1371 11.5704C23.1371 4.07677 18.5376 0.00341797 11.5702 0.00341797C4.16729 0.00341797 0.00317383 4.16754 0.00317383 11.5704C0.00317383 18.9732 4.16729 23.1374 11.5702 23.1374Z" fill="#EBE6FF"/>
<path fill-rule="evenodd" clip-rule="evenodd" d="M2.47978 11.5702C2.47978 8.49282 3.34144 6.26368 4.80244 4.80269C6.26343 3.34169 8.49259 2.48002 11.5699 2.48002C12.2546 2.48002 12.8096 1.92501 12.8096 1.24037C12.8096 0.55574 12.2546 0.000732422 11.5699 0.000732422C8.03622 0.000732422 5.10046 0.998428 3.04932 3.04957C0.998182 5.10071 0.000488281 8.03647 0.000488281 11.5702C0.000488281 15.1039 0.998182 18.0397 3.04932 20.0908C5.10046 22.142 8.03622 23.1396 11.5699 23.1396C15.1037 23.1396 18.0394 22.142 20.0906 20.0908C22.1418 18.0397 23.1394 15.1039 23.1394 11.5702C23.1394 10.8855 22.5844 10.3306 21.8998 10.3306C21.2152 10.3306 20.6602 10.8855 20.6602 11.5702C20.6602 14.6475 19.7984 16.8766 18.3374 18.3377C16.8764 19.7987 14.6473 20.6603 11.5699 20.6603C8.49259 20.6603 6.26343 19.7987 4.80244 18.3377C3.34144 16.8766 2.47978 14.6475 2.47978 11.5702ZM10.1916 7.57937C10.8593 7.42783 11.2777 6.76377 11.1262 6.0961C10.9747 5.42844 10.3106 5.01004 9.64291 5.16157C8.18843 5.49166 6.98087 6.23163 6.15185 7.38531C5.33294 8.5249 4.9589 9.96205 4.9589 11.5693C4.9589 13.5163 5.51036 15.2125 6.71858 16.4207C7.9268 17.629 9.623 18.1804 11.57 18.1804C13.2563 18.1804 14.7555 17.7683 15.9183 16.8646C17.0936 15.9512 17.8002 14.6323 18.0624 13.0657C18.1754 12.3904 17.7197 11.7514 17.0444 11.6384C16.3692 11.5254 15.7302 11.9811 15.6172 12.6564C15.4397 13.7163 15.0015 14.4372 14.3969 14.907C13.7798 15.3866 12.864 15.7011 11.57 15.7011C10.0793 15.7011 9.08978 15.2857 8.4717 14.6676C7.85361 14.0495 7.43818 13.0599 7.43818 11.5693C7.43818 10.3357 7.72434 9.44563 8.16523 8.83209C8.59599 8.23265 9.2478 7.79358 10.1916 7.57937Z" fill="#9D89FA"/>
<path fill-rule="evenodd" clip-rule="evenodd" d="M19.2357 0.968062C19.1468 0.679393 18.9131 0.458429 18.6199 0.385709C18.3267 0.312986 18.0168 0.399128 17.8032 0.612737L15.181 3.23499C14.1051 4.31095 13.6804 5.86993 14.05 7.33469L10.6935 10.6912C10.2094 11.1753 10.2094 11.9602 10.6935 12.4443C11.1776 12.9284 11.9625 12.9284 12.4466 12.4443L15.8015 9.08943C17.2675 9.46104 18.8286 9.0365 19.9056 7.95945L22.5277 5.33726C22.7413 5.12366 22.8274 4.81378 22.7547 4.5206C22.6819 4.2274 22.4611 3.9937 22.1724 3.9047L19.928 3.21251L19.2357 0.968062Z" fill="#9D89FA"/>
</g>
<defs>
<clipPath id="clip0_19428_545">
<rect width="23.14" height="23.14" fill="white"/>
</clipPath>
</defs>
</svg>
